<?xml version="1.0" standalone="no"?>
<!DOCTYPE svg PUBLIC "-//W3C//DTD SVG 20010904//EN"
 "http://www.w3.org/TR/2001/REC-SVG-20010904/DTD/svg10.dtd">
<svg version="1.0" xmlns="http://www.w3.org/2000/svg"
 width="201.000000pt" height="449.000000pt" viewBox="0 0 201.000000 449.000000"
 preserveAspectRatio="xMidYMid meet">

<g transform="translate(0.000000,449.000000) scale(0.100000,-0.100000)"
fill="#000000" stroke="none">
<path d="M1257 4423 c-4 -3 -7 -50 -7 -104 0 -66 -4 -100 -12 -106 -7 -4 -89
-40 -183 -78 -93 -39 -170 -75 -170 -82 0 -6 17 -30 37 -52 36 -41 37 -41 110
-41 51 0 86 -6 117 -20 52 -24 137 -26 187 -5 20 8 40 13 44 10 9 -5 23 -108
42 -295 18 -190 16 -609 -5 -750 -45 -302 -118 -478 -256 -616 -84 -84 -183
-133 -360 -179 -74 -19 -153 -46 -177 -60 -55 -32 -109 -96 -130 -154 -68
-192 -193 -326 -347 -375 -48 -15 -57 -22 -57 -41 0 -63 21 -68 97 -25 74 43
166 131 214 208 23 37 44 61 46 55 4 -10 -158 -751 -237 -1089 -37 -158 -100
-438 -100 -443 1 -14 27 43 105 232 46 111 133 317 193 457 l108 254 73 44
c55 34 98 73 182 167 148 167 210 204 352 213 83 5 87 4 87 -16 0 -29 -80
-324 -286 -1057 -72 -257 -74 -263 -74 -272 1 -17 50 99 422 992 39 94 95 217
124 275 258 510 334 1171 223 1945 -26 186 -71 403 -115 561 -20 71 -38 138
-41 149 -3 15 5 27 34 45 42 27 83 98 83 142 0 35 -7 35 -105 -7 -45 -19 -84
-30 -89 -25 -5 5 -1 29 8 56 21 61 20 74 -3 74 -15 0 -20 -13 -30 -76 -12 -71
-14 -76 -47 -91 -18 -9 -37 -13 -41 -10 -3 4 -1 46 5 94 6 47 9 90 6 94 -6 11
-18 12 -27 2z"/>
<path d="M1436 1401 l-48 -99 45 -104 c58 -133 335 -800 397 -956 7 -18 14
-31 16 -29 4 4 -26 119 -119 447 -31 107 -74 265 -97 350 -91 340 -134 490
-140 490 -4 0 -28 -45 -54 -99z"/>
<path d="M764 1224 c-43 -51 -47 -58 -37 -82 117 -288 180 -434 187 -436 6 0
17 25 25 56 14 55 14 61 -12 155 -82 295 -102 363 -108 363 -4 0 -29 -25 -55
-56z"/>
<path d="M1030 458 c-10 -21 -5 -41 36 -136 26 -62 49 -110 51 -108 4 4 -65
257 -73 265 -2 2 -8 -7 -14 -21z"/>
</g>
</svg>
